<svg xmlns="http://www.w3.org/2000/svg" width="1600" height="1000" viewBox="0 0 1600 1000">
<rect width="1600" height="1000" fill="#f8fafc"/>
<text x="800" y="45" text-anchor="middle" font-family="Arial" font-size="30" font-weight="bold">Wireframes — RT02</text>
<rect x="60" y="90" width="480" height="390" rx="18" fill="white" stroke="#334155" stroke-width="3"/><text x="300" y="132" text-anchor="middle" font-family="Arial" font-size="21" font-weight="bold">01 — LOGIN</text><rect x="95" y="172" width="410" height="45" rx="8" fill="#f1f5f9" stroke="#94a3b8"/><text x="115" y="201" font-family="Arial" font-size="15">Logo / Nome do sistema</text><rect x="95" y="230" width="410" height="45" rx="8" fill="#f1f5f9" stroke="#94a3b8"/><text x="115" y="259" font-family="Arial" font-size="15">E-mail</text><rect x="95" y="288" width="410" height="45" rx="8" fill="#f1f5f9" stroke="#94a3b8"/><text x="115" y="317" font-family="Arial" font-size="15">Senha</text><rect x="95" y="346" width="410" height="45" rx="8" fill="#f1f5f9" stroke="#94a3b8"/><text x="115" y="375" font-family="Arial" font-size="15">[ ENTRAR ]</text><rect x="95" y="404" width="410" height="45" rx="8" fill="#f1f5f9" stroke="#94a3b8"/><text x="115" y="433" font-family="Arial" font-size="15">Esqueci minha senha</text><rect x="600" y="90" width="480" height="390" rx="18" fill="white" stroke="#334155" stroke-width="3"/><text x="840" y="132" text-anchor="middle" font-family="Arial" font-size="21" font-weight="bold">02 — DASHBOARD / CÂMERAS</text><rect x="635" y="172" width="410" height="45" rx="8" fill="#f1f5f9" stroke="#94a3b8"/><text x="655" y="201" font-family="Arial" font-size="15">Menu | Dashboard | Câmeras | Histórico | Configurações</text><rect x="635" y="230" width="410" height="45" rx="8" fill="#f1f5f9" stroke="#94a3b8"/><text x="655" y="259" font-family="Arial" font-size="15">[ Câmera 01 ]  ONLINE</text><rect x="635" y="288" width="410" height="45" rx="8" fill="#f1f5f9" stroke="#94a3b8"/><text x="655" y="317" font-family="Arial" font-size="15">[ Câmera 02 ]  OFFLINE</text><rect x="635" y="346" width="410" height="45" rx="8" fill="#f1f5f9" stroke="#94a3b8"/><text x="655" y="375" font-family="Arial" font-size="15">Eventos recentes</text><rect x="635" y="404" width="410" height="45" rx="8" fill="#f1f5f9" stroke="#94a3b8"/><text x="655" y="433" font-family="Arial" font-size="15">[ NOVA CÂMERA ]</text><rect x="1140" y="90" width="480" height="390" rx="18" fill="white" stroke="#334155" stroke-width="3"/><text x="1380" y="132" text-anchor="middle" font-family="Arial" font-size="21" font-weight="bold">03 — DETECÇÃO IA</text><rect x="1175" y="172" width="410" height="45" rx="8" fill="#f1f5f9" stroke="#94a3b8"/><text x="1195" y="201" font-family="Arial" font-size="15">Vídeo / Imagem da câmera</text><rect x="1175" y="230" width="410" height="45" rx="8" fill="#f1f5f9" stroke="#94a3b8"/><text x="1195" y="259" font-family="Arial" font-size="15">[ área de detecção ]</text><rect x="1175" y="288" width="410" height="45" rx="8" fill="#f1f5f9" stroke="#94a3b8"/><text x="1195" y="317" font-family="Arial" font-size="15">Objeto: Pessoa</text><rect x="1175" y="346" width="410" height="45" rx="8" fill="#f1f5f9" stroke="#94a3b8"/><text x="1195" y="375" font-family="Arial" font-size="15">Confiança: 96%</text><rect x="1175" y="404" width="410" height="45" rx="8" fill="#f1f5f9" stroke="#94a3b8"/><text x="1195" y="433" font-family="Arial" font-size="15">Status: Análise concluída</text><rect x="330" y="540" width="480" height="390" rx="18" fill="white" stroke="#334155" stroke-width="3"/><text x="570" y="582" text-anchor="middle" font-family="Arial" font-size="21" font-weight="bold">04 — CONFIGURAÇÕES / PERFIL</text><rect x="365" y="622" width="410" height="45" rx="8" fill="#f1f5f9" stroke="#94a3b8"/><text x="385" y="651" font-family="Arial" font-size="15">Perfil do usuário</text><rect x="365" y="680" width="410" height="45" rx="8" fill="#f1f5f9" stroke="#94a3b8"/><text x="385" y="709" font-family="Arial" font-size="15">Nome</text><rect x="365" y="738" width="410" height="45" rx="8" fill="#f1f5f9" stroke="#94a3b8"/><text x="385" y="767" font-family="Arial" font-size="15">E-mail</text><rect x="365" y="796" width="410" height="45" rx="8" fill="#f1f5f9" stroke="#94a3b8"/><text x="385" y="825" font-family="Arial" font-size="15">Senha</text><rect x="365" y="854" width="410" height="45" rx="8" fill="#f1f5f9" stroke="#94a3b8"/><text x="385" y="883" font-family="Arial" font-size="15">Notificações: ON</text><rect x="365" y="912" width="410" height="45" rx="8" fill="#f1f5f9" stroke="#94a3b8"/><text x="385" y="941" font-family="Arial" font-size="15">[ SALVAR ALTERAÇÕES ]</text><rect x="870" y="540" width="480" height="390" rx="18" fill="white" stroke="#334155" stroke-width="3"/><text x="1110" y="582" text-anchor="middle" font-family="Arial" font-size="21" font-weight="bold">05 — RESULTADO / HISTÓRICO</text><rect x="905" y="622" width="410" height="45" rx="8" fill="#f1f5f9" stroke="#94a3b8"/><text x="925" y="651" font-family="Arial" font-size="15">Filtros: Data | Câmera | Tipo</text><rect x="905" y="680" width="410" height="45" rx="8" fill="#f1f5f9" stroke="#94a3b8"/><text x="925" y="709" font-family="Arial" font-size="15">18:30 — Pessoa — Câmera 01</text><rect x="905" y="738" width="410" height="45" rx="8" fill="#f1f5f9" stroke="#94a3b8"/><text x="925" y="767" font-family="Arial" font-size="15">17:42 — Movimento — Câmera 02</text><rect x="905" y="796" width="410" height="45" rx="8" fill="#f1f5f9" stroke="#94a3b8"/><text x="925" y="825" font-family="Arial" font-size="15">[ VER DETALHES ]</text><rect x="905" y="854" width="410" height="45" rx="8" fill="#f1f5f9" stroke="#94a3b8"/><text x="925" y="883" font-family="Arial" font-size="15">[ EXPORTAR RELATÓRIO ]</text></svg>